<?xml version="1.0" encoding="UTF-8"?> <svg version="1.1" xmlns="http://www.w3.org/2000/svg"> <path d="M0 0 C0.99954208 -0.00570007 1.99908417 -0.01140015 3.02891541 -0.01727295 C5.14434771 -0.02668633 7.25979443 -0.0332423 9.37524414 -0.03710938 C12.52843926 -0.04668846 15.68094537 -0.07769363 18.83398438 -0.109375 C80.54205142 -0.42884909 139.2706696 24.588628 183.52734375 67.203125 C184.05102539 67.70489258 184.57470703 68.20666016 185.11425781 68.72363281 C192.13032384 75.47904004 198.57912855 82.47044524 204.52734375 90.203125 C204.94306641 90.73711914 205.35878906 91.27111328 205.78710938 91.82128906 C244.91173447 142.33552724 262.1272062 206.79683573 254.28125 270.13671875 C251.90894057 286.89636751 248.28474048 303.27848232 242.52734375 319.203125 C242.24552246 319.98929199 241.96370117 320.77545898 241.67333984 321.58544922 C234.03371281 342.54696592 223.54294319 362.09977386 210.52734375 380.203125 C209.88200684 381.10297119 209.88200684 381.10297119 209.22363281 382.02099609 C202.95259562 390.66876128 195.93153789 398.52665576 188.52734375 406.203125 C187.91052734 406.84717285 187.29371094 407.4912207 186.65820312 408.15478516 C177.84015003 417.32230746 168.83470388 425.740246 158.52734375 433.203125 C157.92519043 433.64430664 157.32303711 434.08548828 156.70263672 434.54003906 C115.03051147 464.86487622 66.38688258 480.47426248 14.96484375 480.390625 C14.21656311 480.38968842 13.46828247 480.38875183 12.69732666 480.38778687 C-27.09935204 480.28015376 -64.28265088 470.73237562 -99.47265625 452.203125 C-100.43171875 451.71328125 -101.39078125 451.2234375 -102.37890625 450.71875 C-118.69741236 442.1755321 -133.58331032 430.83949292 -147.1015625 418.38671875 C-148.73743411 416.88020766 -150.3924521 415.39431507 -152.0625 413.92578125 C-157.31067544 409.30896526 -161.99477082 404.55993423 -166.47265625 399.203125 C-167.2821875 398.28144531 -168.09171875 397.35976563 -168.92578125 396.41015625 C-193.25599652 368.59534054 -209.8326764 335.77317583 -219.47265625 300.203125 C-219.68116211 299.44870117 -219.88966797 298.69427734 -220.10449219 297.91699219 C-221.42977025 293.04720988 -222.52699854 288.1601664 -223.47265625 283.203125 C-223.6221875 282.4385498 -223.77171875 281.67397461 -223.92578125 280.88623047 C-228.89220102 254.17566896 -228.75076724 223.84501857 -223.47265625 197.203125 C-223.27397949 196.18186523 -223.07530273 195.16060547 -222.87060547 194.10839844 C-214.15074298 150.54174464 -195.09266807 109.16602996 -164.078125 76.92578125 C-161.90905483 74.6591517 -159.86342601 72.35419341 -157.84765625 69.953125 C-153.76911922 65.2696375 -149.19507823 61.22545747 -144.47265625 57.203125 C-143.94704102 56.75453125 -143.42142578 56.3059375 -142.87988281 55.84375 C-120.81890509 37.17972701 -95.62236496 22.99661755 -68.47265625 13.203125 C-67.62687012 12.89391113 -66.78108398 12.58469727 -65.90966797 12.26611328 C-44.97406964 4.73654013 -22.28984679 0.10115242 0 0 Z " fill="#033354" transform="translate(497.47265625,156.796875)"/> <path d="M0 0 C1.02867187 -0.02578125 2.05734375 -0.0515625 3.1171875 -0.078125 C8.03930952 0.45883377 10.30719968 2.24390888 13.3984375 6.046875 C20.15252983 18.57709155 12.34241562 37.57602421 9.125 50.25 C8.22575116 53.82498244 7.32996509 57.4008342 6.4347229 60.9768219 C5.54909665 64.51195041 4.65829674 68.04554927 3.75390625 71.57592773 C3.50293938 72.56360138 3.50293938 72.56360138 3.24690247 73.57122803 C2.79278785 75.35820909 2.3353581 77.14434679 1.87768555 78.93041992 C-1.77932159 95.058972 -2.31962563 114.83846678 5.875 129.5625 C11.83979617 138.67740857 20.18244407 145.941944 31.125 148.25 C47.76836942 149.72891198 61.1410555 146.57262967 75.125 137.25 C76.05957031 136.63382813 76.99414062 136.01765625 77.95703125 135.3828125 C86.04507894 129.59503526 92.99045219 122.64381951 100 115.625 C100.74740952 114.87669922 100.74740952 114.87669922 101.50991821 114.11328125 C107.25948871 108.33753705 112.85773043 102.47188838 118.125 96.25 C118.61403809 95.67749512 119.10307617 95.10499023 119.60693359 94.51513672 C120.55510999 93.40426881 121.50192411 92.29223645 122.44726562 91.17895508 C153.2231056 54.9878724 153.2231056 54.9878724 168.4375 52.1875 C172.7140979 52.25998471 174.72259875 52.63885485 178.125 55.25 C181.56784393 62.20963915 181.5508469 68.71339569 181.625 76.375 C182.11732104 96.59938595 186.12519943 115.48412908 200.25 130.9375 C210.92902253 140.87757231 224.94735621 146.60671048 239.125 149.25 C237.59797332 154.49500467 235.27606997 159.00990109 232.625 163.75 C232.18357666 164.54027588 231.74215332 165.33055176 231.28735352 166.14477539 C216.8965309 191.44925502 196.42071322 213.90649545 173.125 231.25 C172.55523438 231.68054688 171.98546875 232.11109375 171.3984375 232.5546875 C162.42676978 239.31416318 153.08736512 245.06612781 143.125 250.25 C142.03276123 250.82065186 142.03276123 250.82065186 140.91845703 251.40283203 C121.01031641 261.66036697 100.10971097 267.35804678 78.125 271.25 C77.39603516 271.38277344 76.66707031 271.51554687 75.91601562 271.65234375 C23.41667154 280.80502078 -34.21118275 265.65900364 -77.5 235.4375 C-106.95872357 214.36088051 -132.71614454 186.43953245 -147.875 153.25 C-147.875 152.26 -147.875 151.27 -147.875 150.25 C-146.58529297 149.55777344 -146.58529297 149.55777344 -145.26953125 148.8515625 C-124.05656665 137.25304166 -106.43413211 120.46647653 -92.1640625 100.99658203 C-90.78918769 99.13373082 -89.3824079 97.29841385 -87.96875 95.46484375 C-80.47020294 85.69183861 -73.62466089 75.54905153 -66.875 65.25 C-24.31687426 0.36384351 -24.31687426 0.36384351 0 0 Z " fill="#FDFDFE" transform="translate(466.875,334.75)"/> <path d="M0 0 C0.84433594 0.63808594 1.68867187 1.27617187 2.55859375 1.93359375 C45.76372485 35.66910707 71.88189575 86.66060397 79.20703125 140.43359375 C81.9143759 163.4114678 81.93874011 189.65725683 75 212 C65.45210523 210.60703518 59.06521729 206.53596741 53 199 C44.43523717 185.62033165 43.85703995 169.67275181 42.27319336 154.32080078 C39.86193835 129.81085347 39.86193835 129.81085347 26.6875 109.625 C17.37461205 102.31955679 7.47737186 101.37176491 -4 102 C-23.07695134 104.46472239 -40.47960756 117.33238123 -54.51123047 129.69042969 C-55.79165118 130.81672957 -57.0841503 131.92927168 -58.37890625 133.0390625 C-64.39568949 138.29197586 -70.03032877 143.92799632 -75.6875 149.5625 C-76.49590332 150.36623047 -77.30430664 151.16996094 -78.13720703 151.99804688 C-82.35063861 156.222742 -86.40790949 160.51979082 -90.30004883 165.04174805 C-93.28405184 168.47915838 -96.39242311 171.79957236 -99.5 175.125 C-100.12519531 175.80175781 -100.75039063 176.47851562 -101.39453125 177.17578125 C-111.93516271 188.45840333 -111.93516271 188.45840333 -117.8125 190 C-118.864375 190 -119.91625 190 -121 190 C-123.52814027 187.47185973 -123.33456434 186.56370342 -123.39453125 183.046875 C-123.24255153 174.18183202 -120.85766306 165.79318344 -118.6875 157.25 C-117.87245751 153.98595349 -117.06500022 150.72008473 -116.26171875 147.453125 C-116.06561005 146.65676636 -115.86950134 145.86040771 -115.66744995 145.03991699 C-111.95035327 129.75223973 -109.81731597 114.93102136 -109.75 99.1875 C-109.729375 97.99318359 -109.70875 96.79886719 -109.6875 95.56835938 C-109.60967011 77.69667139 -115.69084767 62.80669829 -128.0234375 49.87890625 C-141.43499909 37.07255953 -156.16712251 35.39618876 -173.84765625 35.6953125 C-207.58768233 36.92777836 -235.33344887 66.16323413 -257 89 C-260.19599757 92.51719832 -263.09778405 96.23885617 -266 100 C-267.01689026 101.24411877 -268.03808902 102.48472271 -269.0625 103.72265625 C-275.60380625 111.6357892 -281.78421577 119.69330388 -287.66503906 128.10595703 C-290.1987791 131.70082814 -292.79238652 135.25267115 -295.375 138.8125 C-299.13247995 143.99828431 -302.85565045 149.20460785 -306.5246582 154.45336914 C-317.5729232 170.24783569 -329.37514873 185.43286392 -342 200 C-353.44938615 182.82592077 -346.78618684 144.21101756 -343 125 C-334.78201739 86.33134089 -317.54433954 51.43368013 -290.41015625 22.62109375 C-287.98815984 20.05020309 -287.98815984 20.05020309 -285.8984375 17.35546875 C-284.21928599 15.27207706 -282.59262349 13.60218747 -280.5625 11.875 C-279.86253906 11.27945313 -279.16257812 10.68390625 -278.44140625 10.0703125 C-277.23291016 9.04550781 -277.23291016 9.04550781 -276 8 C-275.06027344 7.17242187 -274.12054688 6.34484375 -273.15234375 5.4921875 C-260.25494615 -5.79252505 -246.18297259 -15.07876945 -231 -23 C-230.35015137 -23.3412793 -229.70030273 -23.68255859 -229.03076172 -24.03417969 C-156.0426751 -61.80221659 -63.96944676 -49.89088901 0 0 Z " fill="#FDFDFD" transform="translate(645,231)"/> </svg>